<?xml version="1.0" encoding="UTF-8" standalone="no"?>
<svg width="512px" height="512px" viewBox="0 0 512 512" version="1.1" xmlns="http://www.w3.org/2000/svg" xmlns:xlink="http://www.w3.org/1999/xlink" xmlns:sketch="http://www.bohemiancoding.com/sketch/ns">
    <!-- Generator: Sketch 3.2.2 (9983) - http://www.bohemiancoding.com/sketch -->
    <title>Slice 1svg</title>
    <desc>Created with Sketch.</desc>
    <defs></defs>
    <g id="Page-1" stroke="none" stroke-width="1" fill="none" fill-rule="evenodd" sketch:type="MSPage">
        <g id="visualizers" sketch:type="MSLayerGroup">
            <g id="1" transform="translate(128.000000, 0.000000)" sketch:type="MSShapeGroup">
                <path d="M0,0 L128,0 L128,128 L0,128 L0,0 Z" id="Shape" fill="#FF8A80"></path>
                <rect id="Rectangle-8" stroke="#979797" fill="#D8D8D8" x="25" y="24.3809596" width="52" height="52"></rect>
                <rect id="Rectangle-9" stroke="#979797" fill="#D8D8D8" x="51" y="51.6190404" width="52" height="52"></rect>
            </g>
            <g id="10" transform="translate(256.000000, 256.000000)" sketch:type="MSShapeGroup">
                <path d="M0,0 L128,0 L128,128 L0,128 L0,0 Z" id="Shape" fill="#8C9EFF"></path>
                <g id="Group-3" transform="translate(24.000000, 24.000000)" stroke="#979797">
                    <rect id="Rectangle-1" fill="#D8D8D8" x="1.10415802" y="1.22331312" width="52" height="52"></rect>
                    <rect id="Rectangle-3" fill="#D8D8D8" x="10.104158" y="10.2233131" width="52" height="52"></rect>
                    <rect id="Rectangle-4" fill="#D8D8D8" x="19.104158" y="19.2233131" width="52" height="52"></rect>
                    <rect id="Rectangle-2" fill="#D8D8D8" x="27.104158" y="27.2233131" width="52" height="52"></rect>
                    <path d="M77.6916902,27.2357862 L52.2356112,1.22331312 L1.10415802,1.22331312 L28.4303894,28.0147676 L77.6916902,27.2357862 Z" id="Rectangle-7" fill-opacity="0.5" fill="#4990E2"></path>
                    <path d="M0.895841983,53.0880237 L1.10197742,0.776686876 L27.1002175,27.2233131 L27.0926283,79.2233131 L0.895841983,53.0880237 Z" id="Rectangle-5" fill-opacity="0.5" fill="#4990E2"></path>
                    <path d="M0.895841983,53.0880237 L1.10197742,0.776686876 L27.1002175,27.2233131 L27.0926283,79.2233131 L0.895841983,53.0880237 Z" id="Rectangle-6" fill-opacity="0.5" fill="#4990E2"></path>
                </g>
            </g>
            <g id="11" transform="translate(0.000000, 128.000000)" sketch:type="MSShapeGroup">
                <path d="M0,0 L128,0 L128,128 L0,128 L0,0 Z" id="Shape" fill="#FFFF8D"></path>
                <g id="Group-4" transform="translate(24.000000, 24.000000)" stroke="#979797">
                    <rect id="Rectangle-1" fill="#D8D8D8" x="1.10415802" y="1.22331312" width="52" height="52"></rect>
                    <rect id="Rectangle-3" fill="#D8D8D8" x="10.104158" y="10.2233131" width="52" height="52"></rect>
                    <rect id="Rectangle-4" fill="#D8D8D8" x="19.104158" y="19.2233131" width="52" height="52"></rect>
                    <rect id="Rectangle-2" fill="#D8D8D8" x="27.104158" y="27.2233131" width="52" height="52"></rect>
                    <path d="M77.6916902,27.2357862 L52.2356112,1.22331312 L1.10415802,1.22331312 L28.4303894,28.0147676 L77.6916902,27.2357862 Z" id="Rectangle-7" fill-opacity="0.5" fill="#4990E2"></path>
                    <path d="M0.895841983,53.0880237 L1.10197742,0.776686876 L27.1002175,27.2233131 L27.0926283,79.2233131 L0.895841983,53.0880237 Z" id="Rectangle-5" fill-opacity="0.5" fill="#4990E2"></path>
                    <path d="M0.895841983,53.0880237 L1.10197742,0.776686876 L27.1002175,27.2233131 L27.0926283,79.2233131 L0.895841983,53.0880237 Z" id="Rectangle-6" fill-opacity="0.5" fill="#4990E2"></path>
                </g>
            </g>
            <g id="12" transform="translate(128.000000, 128.000000)" sketch:type="MSShapeGroup">
                <path d="M0,0 L128,0 L128,128 L0,128 L0,0 Z" id="Shape" fill="#B9F6CA"></path>
                <g id="Group-5" transform="translate(24.000000, 24.000000)" stroke="#979797">
                    <rect id="Rectangle-1" fill="#D8D8D8" x="1.10415802" y="1.22331312" width="52" height="52"></rect>
                    <rect id="Rectangle-3" fill="#D8D8D8" x="10.104158" y="10.2233131" width="52" height="52"></rect>
                    <rect id="Rectangle-4" fill="#D8D8D8" x="19.104158" y="19.2233131" width="52" height="52"></rect>
                    <rect id="Rectangle-2" fill="#D8D8D8" x="27.104158" y="27.2233131" width="52" height="52"></rect>
                    <path d="M77.6916902,27.2357862 L52.2356112,1.22331312 L1.10415802,1.22331312 L28.4303894,28.0147676 L77.6916902,27.2357862 Z" id="Rectangle-7" fill-opacity="0.5" fill="#4990E2"></path>
                    <path d="M0.895841983,53.0880237 L1.10197742,0.776686876 L27.1002175,27.2233131 L27.0926283,79.2233131 L0.895841983,53.0880237 Z" id="Rectangle-5" fill-opacity="0.5" fill="#4990E2"></path>
                    <path d="M0.895841983,53.0880237 L1.10197742,0.776686876 L27.1002175,27.2233131 L27.0926283,79.2233131 L0.895841983,53.0880237 Z" id="Rectangle-6" fill-opacity="0.5" fill="#4990E2"></path>
                </g>
            </g>
            <g id="13" transform="translate(256.000000, 0.000000)">
                <path d="M0,0 L128,0 L128,128 L0,128 L0,0 Z" id="Shape" fill="#448AFF" sketch:type="MSShapeGroup"></path>
                <rect id="Rectangle-11" stroke="#979797" fill="#D8D8D8" sketch:type="MSShapeGroup" x="25" y="24.3809596" width="52" height="52"></rect>
                <rect id="Rectangle-10" stroke="#979797" stroke-dasharray="4" fill="#D8D8D8" sketch:type="MSShapeGroup" x="51" y="51.6190404" width="52" height="52"></rect>
                <text id="+" sketch:type="MSTextLayer" font-family="Al Bayan" font-size="48" font-weight="normal" fill="#979797">
                    <tspan x="66" y="86">+</tspan>
                </text>
            </g>
            <g id="14" transform="translate(256.000000, 128.000000)" sketch:type="MSShapeGroup">
                <path d="M0,0 L128,0 L128,128 L0,128 L0,0 Z" id="Shape" fill="#B388FF"></path>
                <g id="Group-6" transform="translate(24.000000, 24.000000)" stroke="#979797">
                    <rect id="Rectangle-1" fill="#D8D8D8" x="1.10415802" y="1.22331312" width="52" height="52"></rect>
                    <rect id="Rectangle-3" fill="#D8D8D8" x="10.104158" y="10.2233131" width="52" height="52"></rect>
                    <rect id="Rectangle-4" fill="#D8D8D8" x="19.104158" y="19.2233131" width="52" height="52"></rect>
                    <rect id="Rectangle-2" fill="#D8D8D8" x="27.104158" y="27.2233131" width="52" height="52"></rect>
                    <path d="M77.6916902,27.2357862 L52.2356112,1.22331312 L1.10415802,1.22331312 L28.4303894,28.0147676 L77.6916902,27.2357862 Z" id="Rectangle-7" fill-opacity="0.5" fill="#4990E2"></path>
                    <path d="M0.895841983,53.0880237 L1.10197742,0.776686876 L27.1002175,27.2233131 L27.0926283,79.2233131 L0.895841983,53.0880237 Z" id="Rectangle-5" fill-opacity="0.5" fill="#4990E2"></path>
                    <path d="M0.895841983,53.0880237 L1.10197742,0.776686876 L27.1002175,27.2233131 L27.0926283,79.2233131 L0.895841983,53.0880237 Z" id="Rectangle-6" fill-opacity="0.5" fill="#4990E2"></path>
                </g>
            </g>
            <g id="15" transform="translate(0.000000, 256.000000)" sketch:type="MSShapeGroup">
                <path d="M0,0 L128,0 L128,128 L0,128 L0,0 Z" id="Shape" fill="#FF80AB"></path>
                <g id="Group-7" transform="translate(24.000000, 24.000000)" stroke="#979797">
                    <rect id="Rectangle-1" fill="#D8D8D8" x="1.10415802" y="1.22331312" width="52" height="52"></rect>
                    <rect id="Rectangle-3" fill="#D8D8D8" x="10.104158" y="10.2233131" width="52" height="52"></rect>
                    <rect id="Rectangle-4" fill="#D8D8D8" x="19.104158" y="19.2233131" width="52" height="52"></rect>
                    <rect id="Rectangle-2" fill="#D8D8D8" x="27.104158" y="27.2233131" width="52" height="52"></rect>
                    <path d="M77.6916902,27.2357862 L52.2356112,1.22331312 L1.10415802,1.22331312 L28.4303894,28.0147676 L77.6916902,27.2357862 Z" id="Rectangle-7" fill-opacity="0.5" fill="#4990E2"></path>
                    <path d="M0.895841983,53.0880237 L1.10197742,0.776686876 L27.1002175,27.2233131 L27.0926283,79.2233131 L0.895841983,53.0880237 Z" id="Rectangle-5" fill-opacity="0.5" fill="#4990E2"></path>
                    <path d="M0.895841983,53.0880237 L1.10197742,0.776686876 L27.1002175,27.2233131 L27.0926283,79.2233131 L0.895841983,53.0880237 Z" id="Rectangle-6" fill-opacity="0.5" fill="#4990E2"></path>
                </g>
            </g>
            <g id="16" transform="translate(128.000000, 256.000000)" sketch:type="MSShapeGroup">
                <path d="M0,0 L128,0 L128,128 L0,128 L0,0 Z" id="Shape" fill="#B388FF"></path>
                <g id="Group-2" transform="translate(24.000000, 24.000000)" stroke="#979797">
                    <rect id="Rectangle-1" fill="#D8D8D8" x="1.10415802" y="1.22331312" width="52" height="52"></rect>
                    <rect id="Rectangle-3" fill="#D8D8D8" x="10.104158" y="10.2233131" width="52" height="52"></rect>
                    <rect id="Rectangle-4" fill="#D8D8D8" x="19.104158" y="19.2233131" width="52" height="52"></rect>
                    <rect id="Rectangle-2" fill="#D8D8D8" x="27.104158" y="27.2233131" width="52" height="52"></rect>
                    <path d="M77.6916902,27.2357862 L52.2356112,1.22331312 L1.10415802,1.22331312 L28.4303894,28.0147676 L77.6916902,27.2357862 Z" id="Rectangle-7" fill-opacity="0.5" fill="#4990E2"></path>
                    <path d="M0.895841983,53.0880237 L1.10197742,0.776686876 L27.1002175,27.2233131 L27.0926283,79.2233131 L0.895841983,53.0880237 Z" id="Rectangle-5" fill-opacity="0.5" fill="#4990E2"></path>
                    <path d="M0.895841983,53.0880237 L1.10197742,0.776686876 L27.1002175,27.2233131 L27.0926283,79.2233131 L0.895841983,53.0880237 Z" id="Rectangle-6" fill-opacity="0.5" fill="#4990E2"></path>
                </g>
            </g>
            <g id="2" sketch:type="MSShapeGroup">
                <path d="M0,0 L128,0 L128,128 L0,128 L0,0 Z" id="Shape" fill="#B9F6CA"></path>
                <g id="Group" transform="translate(24.000000, 24.000000)" stroke="#979797">
                    <rect id="Rectangle-1" fill="#D8D8D8" x="1.10415802" y="1.22331312" width="52" height="52"></rect>
                    <rect id="Rectangle-3" fill="#D8D8D8" x="10.104158" y="10.2233131" width="52" height="52"></rect>
                    <rect id="Rectangle-4" fill="#D8D8D8" x="19.104158" y="19.2233131" width="52" height="52"></rect>
                    <rect id="Rectangle-2" fill="#D8D8D8" x="27.104158" y="27.2233131" width="52" height="52"></rect>
                    <path d="M77.6916902,27.2357862 L52.2356112,1.22331312 L1.10415802,1.22331312 L28.4303894,28.0147676 L77.6916902,27.2357862 Z" id="Rectangle-7" fill-opacity="0.5" fill="#4990E2"></path>
                    <path d="M0.895841983,53.0880237 L1.10197742,0.776686876 L27.1002175,27.2233131 L27.0926283,79.2233131 L0.895841983,53.0880237 Z" id="Rectangle-5" fill-opacity="0.5" fill="#4990E2"></path>
                    <path d="M0.895841983,53.0880237 L1.10197742,0.776686876 L27.1002175,27.2233131 L27.0926283,79.2233131 L0.895841983,53.0880237 Z" id="Rectangle-6" fill-opacity="0.5" fill="#4990E2"></path>
                </g>
            </g>
            <g id="3" transform="translate(384.000000, 0.000000)" sketch:type="MSShapeGroup">
                <path d="M0,0 L128,0 L128,128 L0,128 L0,0 Z" id="Shape" fill="#80D8FF"></path>
                <g id="Group-8" transform="translate(24.000000, 24.000000)" stroke="#979797">
                    <rect id="Rectangle-1" fill="#D8D8D8" x="1.10415802" y="1.22331312" width="52" height="52"></rect>
                    <rect id="Rectangle-3" fill="#D8D8D8" x="10.104158" y="10.2233131" width="52" height="52"></rect>
                    <rect id="Rectangle-4" fill="#D8D8D8" x="19.104158" y="19.2233131" width="52" height="52"></rect>
                    <rect id="Rectangle-2" fill="#D8D8D8" x="27.104158" y="27.2233131" width="52" height="52"></rect>
                    <path d="M77.6916902,27.2357862 L52.2356112,1.22331312 L1.10415802,1.22331312 L28.4303894,28.0147676 L77.6916902,27.2357862 Z" id="Rectangle-7" fill-opacity="0.5" fill="#4990E2"></path>
                    <path d="M0.895841983,53.0880237 L1.10197742,0.776686876 L27.1002175,27.2233131 L27.0926283,79.2233131 L0.895841983,53.0880237 Z" id="Rectangle-5" fill-opacity="0.5" fill="#4990E2"></path>
                    <path d="M0.895841983,53.0880237 L1.10197742,0.776686876 L27.1002175,27.2233131 L27.0926283,79.2233131 L0.895841983,53.0880237 Z" id="Rectangle-6" fill-opacity="0.5" fill="#4990E2"></path>
                </g>
            </g>
            <g id="4" transform="translate(384.000000, 128.000000)" sketch:type="MSShapeGroup">
                <path d="M0,0 L128,0 L128,128 L0,128 L0,0 Z" id="Shape" fill="#84FFFF"></path>
                <g id="Group-9" transform="translate(24.000000, 24.000000)" stroke="#979797">
                    <rect id="Rectangle-1" fill="#D8D8D8" x="1.10415802" y="1.22331312" width="52" height="52"></rect>
                    <rect id="Rectangle-3" fill="#D8D8D8" x="10.104158" y="10.2233131" width="52" height="52"></rect>
                    <rect id="Rectangle-4" fill="#D8D8D8" x="19.104158" y="19.2233131" width="52" height="52"></rect>
                    <rect id="Rectangle-2" fill="#D8D8D8" x="27.104158" y="27.2233131" width="52" height="52"></rect>
                    <path d="M77.6916902,27.2357862 L52.2356112,1.22331312 L1.10415802,1.22331312 L28.4303894,28.0147676 L77.6916902,27.2357862 Z" id="Rectangle-7" fill-opacity="0.5" fill="#4990E2"></path>
                    <path d="M0.895841983,53.0880237 L1.10197742,0.776686876 L27.1002175,27.2233131 L27.0926283,79.2233131 L0.895841983,53.0880237 Z" id="Rectangle-5" fill-opacity="0.5" fill="#4990E2"></path>
                    <path d="M0.895841983,53.0880237 L1.10197742,0.776686876 L27.1002175,27.2233131 L27.0926283,79.2233131 L0.895841983,53.0880237 Z" id="Rectangle-6" fill-opacity="0.5" fill="#4990E2"></path>
                </g>
            </g>
            <g id="5" transform="translate(384.000000, 256.000000)" sketch:type="MSShapeGroup">
                <path d="M0,0 L128,0 L128,128 L0,128 L0,0 Z" id="Shape" fill="#FFFF8D"></path>
                <g id="Group-10" transform="translate(24.000000, 24.000000)" stroke="#979797">
                    <rect id="Rectangle-1" fill="#D8D8D8" x="1.10415802" y="1.22331312" width="52" height="52"></rect>
                    <rect id="Rectangle-3" fill="#D8D8D8" x="10.104158" y="10.2233131" width="52" height="52"></rect>
                    <rect id="Rectangle-4" fill="#D8D8D8" x="19.104158" y="19.2233131" width="52" height="52"></rect>
                    <rect id="Rectangle-2" fill="#D8D8D8" x="27.104158" y="27.2233131" width="52" height="52"></rect>
                    <path d="M77.6916902,27.2357862 L52.2356112,1.22331312 L1.10415802,1.22331312 L28.4303894,28.0147676 L77.6916902,27.2357862 Z" id="Rectangle-7" fill-opacity="0.5" fill="#4990E2"></path>
                    <path d="M0.895841983,53.0880237 L1.10197742,0.776686876 L27.1002175,27.2233131 L27.0926283,79.2233131 L0.895841983,53.0880237 Z" id="Rectangle-5" fill-opacity="0.5" fill="#4990E2"></path>
                    <path d="M0.895841983,53.0880237 L1.10197742,0.776686876 L27.1002175,27.2233131 L27.0926283,79.2233131 L0.895841983,53.0880237 Z" id="Rectangle-6" fill-opacity="0.5" fill="#4990E2"></path>
                </g>
            </g>
            <g id="6" transform="translate(0.000000, 384.000000)" sketch:type="MSShapeGroup">
                <path d="M0,0 L128,0 L128,128 L0,128 L0,0 Z" id="Shape" fill="#FF8A80"></path>
                <g id="Group-11" transform="translate(24.000000, 24.000000)" stroke="#979797">
                    <rect id="Rectangle-1" fill="#D8D8D8" x="1.10415802" y="1.22331312" width="52" height="52"></rect>
                    <rect id="Rectangle-3" fill="#D8D8D8" x="10.104158" y="10.2233131" width="52" height="52"></rect>
                    <rect id="Rectangle-4" fill="#D8D8D8" x="19.104158" y="19.2233131" width="52" height="52"></rect>
                    <rect id="Rectangle-2" fill="#D8D8D8" x="27.104158" y="27.2233131" width="52" height="52"></rect>
                    <path d="M77.6916902,27.2357862 L52.2356112,1.22331312 L1.10415802,1.22331312 L28.4303894,28.0147676 L77.6916902,27.2357862 Z" id="Rectangle-7" fill-opacity="0.5" fill="#4990E2"></path>
                    <path d="M0.895841983,53.0880237 L1.10197742,0.776686876 L27.1002175,27.2233131 L27.0926283,79.2233131 L0.895841983,53.0880237 Z" id="Rectangle-5" fill-opacity="0.5" fill="#4990E2"></path>
                    <path d="M0.895841983,53.0880237 L1.10197742,0.776686876 L27.1002175,27.2233131 L27.0926283,79.2233131 L0.895841983,53.0880237 Z" id="Rectangle-6" fill-opacity="0.5" fill="#4990E2"></path>
                </g>
            </g>
            <g id="7" transform="translate(128.000000, 384.000000)" sketch:type="MSShapeGroup">
                <path d="M0,0 L128,0 L128,128 L0,128 L0,0 Z" id="Shape" fill="#80D8FF"></path>
                <g id="Group-12" transform="translate(24.000000, 24.000000)" stroke="#979797">
                    <rect id="Rectangle-1" fill="#D8D8D8" x="1.10415802" y="1.22331312" width="52" height="52"></rect>
                    <rect id="Rectangle-3" fill="#D8D8D8" x="10.104158" y="10.2233131" width="52" height="52"></rect>
                    <rect id="Rectangle-4" fill="#D8D8D8" x="19.104158" y="19.2233131" width="52" height="52"></rect>
                    <rect id="Rectangle-2" fill="#D8D8D8" x="27.104158" y="27.2233131" width="52" height="52"></rect>
                    <path d="M77.6916902,27.2357862 L52.2356112,1.22331312 L1.10415802,1.22331312 L28.4303894,28.0147676 L77.6916902,27.2357862 Z" id="Rectangle-7" fill-opacity="0.5" fill="#4990E2"></path>
                    <path d="M0.895841983,53.0880237 L1.10197742,0.776686876 L27.1002175,27.2233131 L27.0926283,79.2233131 L0.895841983,53.0880237 Z" id="Rectangle-5" fill-opacity="0.5" fill="#4990E2"></path>
                    <path d="M0.895841983,53.0880237 L1.10197742,0.776686876 L27.1002175,27.2233131 L27.0926283,79.2233131 L0.895841983,53.0880237 Z" id="Rectangle-6" fill-opacity="0.5" fill="#4990E2"></path>
                </g>
            </g>
            <g id="8" transform="translate(256.000000, 384.000000)" sketch:type="MSShapeGroup">
                <path d="M0,0 L128,0 L128,128 L0,128 L0,0 Z" id="Shape" fill="#B388FF"></path>
                <g id="Group-13" transform="translate(24.000000, 24.000000)" stroke="#979797">
                    <rect id="Rectangle-1" fill="#D8D8D8" x="1.10415802" y="1.22331312" width="52" height="52"></rect>
                    <rect id="Rectangle-3" fill="#D8D8D8" x="10.104158" y="10.2233131" width="52" height="52"></rect>
                    <rect id="Rectangle-4" fill="#D8D8D8" x="19.104158" y="19.2233131" width="52" height="52"></rect>
                    <rect id="Rectangle-2" fill="#D8D8D8" x="27.104158" y="27.2233131" width="52" height="52"></rect>
                    <path d="M77.6916902,27.2357862 L52.2356112,1.22331312 L1.10415802,1.22331312 L28.4303894,28.0147676 L77.6916902,27.2357862 Z" id="Rectangle-7" fill-opacity="0.5" fill="#4990E2"></path>
                    <path d="M0.895841983,53.0880237 L1.10197742,0.776686876 L27.1002175,27.2233131 L27.0926283,79.2233131 L0.895841983,53.0880237 Z" id="Rectangle-5" fill-opacity="0.5" fill="#4990E2"></path>
                    <path d="M0.895841983,53.0880237 L1.10197742,0.776686876 L27.1002175,27.2233131 L27.0926283,79.2233131 L0.895841983,53.0880237 Z" id="Rectangle-6" fill-opacity="0.5" fill="#4990E2"></path>
                </g>
            </g>
            <g id="9" transform="translate(384.000000, 384.000000)" sketch:type="MSShapeGroup">
                <path d="M0,0 L128,0 L128,128 L0,128 L0,0 Z" id="Shape" fill="#FFFF8D"></path>
                <g id="Group-14" transform="translate(24.000000, 24.000000)" stroke="#979797">
                    <rect id="Rectangle-1" fill="#D8D8D8" x="1.10415802" y="1.22331312" width="52" height="52"></rect>
                    <rect id="Rectangle-3" fill="#D8D8D8" x="10.104158" y="10.2233131" width="52" height="52"></rect>
                    <rect id="Rectangle-4" fill="#D8D8D8" x="19.104158" y="19.2233131" width="52" height="52"></rect>
                    <rect id="Rectangle-2" fill="#D8D8D8" x="27.104158" y="27.2233131" width="52" height="52"></rect>
                    <path d="M77.6916902,27.2357862 L52.2356112,1.22331312 L1.10415802,1.22331312 L28.4303894,28.0147676 L77.6916902,27.2357862 Z" id="Rectangle-7" fill-opacity="0.5" fill="#4990E2"></path>
                    <path d="M0.895841983,53.0880237 L1.10197742,0.776686876 L27.1002175,27.2233131 L27.0926283,79.2233131 L0.895841983,53.0880237 Z" id="Rectangle-5" fill-opacity="0.5" fill="#4990E2"></path>
                    <path d="M0.895841983,53.0880237 L1.10197742,0.776686876 L27.1002175,27.2233131 L27.0926283,79.2233131 L0.895841983,53.0880237 Z" id="Rectangle-6" fill-opacity="0.5" fill="#4990E2"></path>
                </g>
            </g>
        </g>
    </g>
</svg>