<?xml version="1.0" encoding="UTF-8" standalone="no"?>
<svg width="113px" height="110px" viewBox="0 0 113 110" version="1.1" xmlns="http://www.w3.org/2000/svg" xmlns:xlink="http://www.w3.org/1999/xlink" xmlns:sketch="http://www.bohemiancoding.com/sketch/ns">
    <!-- Generator: Sketch 3.2.2 (9983) - http://www.bohemiancoding.com/sketch -->
    <title>Slice 1svg</title>
    <desc>Created with Sketch.</desc>
    <defs></defs>
    <g id="Page-1" stroke="none" stroke-width="1" fill="none" fill-rule="evenodd" sketch:type="MSPage">
        <rect id="Rectangle-1" fill="#FFFFFF" sketch:type="MSShapeGroup" x="0" y="0" width="113" height="110"></rect>
        <g id="titlelogo" sketch:type="MSLayerGroup">
            <g id="g10" transform="translate(56.245400, 55.094400) scale(1, -1) translate(-56.245400, -55.094400) translate(0.245400, 0.594400)" sketch:type="MSShapeGroup">
                <path d="M55.899375,108.1095 L100.556,86.785875 L111.59025,38.862625 L80.69225,0.42625 L31.1295,0.42625 L0.223375,38.855125 L11.247,86.781625 L55.899375,108.11475 L55.899375,108.1095 Z" id="path16" fill="#336EE5"></path>
                <g id="g22" transform="translate(24.692813, 20.722500)" stroke="#FFFFFF" stroke-width="7.03151163">
                    <path d="M24.2314164,61.7686091 C41.0271009,65.5826701 57.7724605,55.0495997 61.6326431,38.2425848 C65.4935338,21.436278 55.0072018,4.71999847 38.2115173,0.906234406 C21.4151247,-2.90679866 4.66976506,7.62627172 0.809262688,24.4325785 C-3.05091987,41.2395934 7.43470403,57.9558958 24.2314164,61.7686091 L24.2314164,61.7686091 Z" id="path24"></path>
                </g>
                <path d="M53.02325,87.75925 L56.457125,87.74675 L56.675375,62.506625 L51.592875,62.459125 L53.02325,87.754125 L53.02325,87.75925 Z" id="path26" fill="#FFFFFF"></path>
                <g id="g28" transform="translate(51.550250, 62.298125)" stroke="#FFFFFF" stroke-width="0.625">
                    <path d="M1.46064534,25.4957952 L4.89407662,25.4880283 L5.11290287,0.247717625 L0.0303835875,0.199882813 L1.46064534,25.4957952 L1.46064534,25.4957952 Z" id="path30"></path>
                </g>
                <path d="M58.788625,87.75925 L55.354,87.74675 L55.1415,62.506625 L60.22325,62.460375 L58.788625,87.754625 L58.788625,87.75925 Z" id="path32" fill="#FFFFFF"></path>
                <g id="g34" transform="translate(54.985850, 62.298125)" stroke="#FFFFFF" stroke-width="0.625">
                    <path d="M3.79028276,25.4958637 L0.355820798,25.4880968 L0.143393355,0.247786156 L5.2251611,0.201436188 L3.79028276,25.4959322 L3.79028276,25.4958637 Z" id="path36"></path>
                </g>
                <path d="M58.57775,97.289375 C58.57775,95.6495 57.3815,94.319625 55.905375,94.319625 C54.429625,94.319625 53.233,95.6495 53.233,97.28825 C53.233,98.9285 54.4285,100.257875 55.905375,100.259 C57.3815,100.259 58.57775,98.9295 58.57775,97.289375" id="path38" fill="#FFFFFF"></path>
                <g id="g40" transform="translate(56.156675, 97.308387) rotate(0.006967) translate(-56.156675, -97.308387) translate(53.156675, 94.308387)" stroke="#FFFFFF" stroke-width="0.625">
                    <path d="M5.44916861,3.01151889 C5.44900414,1.37124625 4.25186812,0.0418999015 2.77614047,0.0421054953 C1.30033059,0.0422882453 0.103914128,1.37227422 0.103790776,3.01113054 C0.103790776,4.65135749 1.30039227,5.980681 2.77690115,5.98152622 C4.25303997,5.98138916 5.44941531,4.65174584 5.44916861,3.01151889 L5.44916861,3.01151889 Z" id="path42"></path>
                </g>
                <path d="M53.234125,97.328625 C53.23475,97.094125 53.222875,96.75575 53.231625,96.53 C53.267375,95.583875 53.474375,94.859 53.598375,93.987 C53.823375,92.122125 54.01225,90.575875 53.896375,89.139 C53.79,88.41975 53.373375,88.135875 53.0265,87.80325 L57.241625,85.013875 L56.608,97.308125 L53.2345,97.328125 L53.234125,97.328625 Z" id="path44" fill="#FFFFFF"></path>
                <g id="g46" transform="translate(55.189219, 91.189438) rotate(-90.000000) translate(-55.189219, -91.189438) translate(48.854831, 89.019281)" stroke="#FFFFFF" stroke-width="0.625">
                    <path d="M0.202292423,0.221013281 C0.436879485,0.221013281 0.77524314,0.210048281 1.00094059,0.218272031 C1.94669685,0.253702687 2.67233852,0.460964031 3.54395024,0.58498275 C5.40879392,0.809673875 6.95543662,0.998888656 8.39188245,0.882979469 C9.1112112,0.776710344 9.39503471,0.359948969 9.72809465,0.0127468125 L12.5170288,4.22828675 L0.22288455,3.59473819 L0.20227095,0.221058969 L0.202292423,0.221013281 Z" id="path48"></path>
                </g>
                <path d="M58.57775,97.328625 C58.577,97.094125 58.589,96.75575 58.58025,96.53 C58.54475,95.583875 58.3375,94.859 58.213875,93.987 C57.9885,92.122125 57.799625,90.575875 57.9155,89.139 C58.02175,88.41975 58.4385,88.135875 58.785375,87.80325 L54.57025,85.013875 L55.20375,97.308125 L58.577375,97.328125 L58.57775,97.328625 Z" id="path50" fill="#FFFFFF"></path>
                <g id="g52" transform="translate(56.674063, 91.189437) rotate(-90.000000) translate(-56.674063, -91.189437) translate(50.339675, 88.905062)" stroke="#FFFFFF" stroke-width="0.625">
                    <path d="M0.202292423,4.19420388 C0.436879485,4.19420388 0.77524314,4.20516888 1.00094059,4.19717356 C1.94669685,4.16174291 2.67233852,3.95441303 3.54395024,3.83039431 C5.40879392,3.60538337 6.95543662,3.41616859 8.39188245,3.53207778 C9.1112112,3.63873525 9.39503471,4.05542809 9.72809465,4.40231044 L12.5170288,0.1867705 L0.22288455,0.820638875 L0.20227095,4.19431809 L0.202292423,4.19420388 Z" id="path54"></path>
                </g>
                <g id="g56" transform="translate(47.308125, 43.109375)" stroke="#FFFFFF" stroke-width="6.93216453">
                    <path d="M15.4715008,3.48680147 L8.59411572,0.190768156 L1.71782716,3.48856044 L0.0198512188,10.8992557 L4.7803745,16.8408237 L12.4124485,16.8408237 L17.1712814,10.8978394 L15.4715008,3.48792081 L15.4715008,3.48680147 Z" id="path58"></path>
                </g>
                <path d="M26.144125,72.0585 L28.291,74.738 L48.160375,59.1715 L45.02925,55.168625 L26.144125,72.0585 L26.144125,72.0585 Z" id="path60" fill="#FFFFFF"></path>
                <g id="g62" transform="translate(36.736988, 65.062913) rotate(51.428748) translate(-36.736988, -65.062913) translate(34.052992, 52.270517)" stroke="#FFFFFF" stroke-width="0.625">
                    <path d="M1.50975833,25.440877 L4.94303976,25.4328817 L5.16089432,0.192388494 L0.0792315536,0.144805351 L1.50975833,25.4407856 L1.50975833,25.440877 Z" id="path64"></path>
                </g>
                <path d="M29.738375,76.56625 L27.603875,73.875875 L47.2045,57.9725 L50.409,61.91725 L29.738375,76.56625 L29.738375,76.56625 Z" id="path66" fill="#FFFFFF"></path>
                <g id="g68" transform="translate(38.878988, 67.748912) rotate(51.428748) translate(-38.878988, -67.748912) translate(36.194992, 54.956517)" stroke="#FFFFFF" stroke-width="0.625">
                    <path d="M3.83940219,25.4412653 L0.405498073,25.4328132 L0.191937902,0.192251433 L5.27394422,0.14633587 L3.83940219,25.4412196 L3.83940219,25.4412653 Z" id="path70"></path>
                </g>
                <path d="M22.1565,82.34325 C23.43875,81.32075 23.732125,79.5565 22.812375,78.40175 C21.891375,77.248 20.106,77.141 18.823625,78.163625 C17.54125,79.18625 17.247875,80.950375 18.168875,82.104125 C19.088625,83.2585 20.8745,83.364875 22.1565,82.34325" id="path72" fill="#FFFFFF"></path>
                <g id="g74" transform="translate(20.511650, 80.268025) rotate(51.435402) translate(-20.511650, -80.268025) translate(17.736220, 77.184222)" stroke="#FFFFFF" stroke-width="0.625">
                    <path d="M5.41990126,3.06077692 C5.41990126,1.42042234 4.22336189,0.0912120293 2.7467919,0.0908922275 C1.27065363,0.0908922275 0.0739292377,1.42115332 0.0741759426,3.06123378 C0.0741759426,4.70108581 1.27094146,6.03050171 2.74707972,6.02965652 C4.22317686,6.02965652 5.41930506,4.70024062 5.41990126,3.06077692 L5.41990126,3.06077692 Z" id="path76"></path>
                </g>
                <path d="M18.79425,78.1895 C18.978125,78.043125 19.23425,77.8235 19.417125,77.688875 C20.17825,77.126875 20.8745,76.836625 21.6335,76.3905 C23.231875,75.40375 24.558875,74.587 25.60975,73.60025 C26.105875,73.069375 26.0675,72.567 26.111125,72.087875 L30.91975,73.644125 L20.9135,80.813625 L18.79425,78.1895 L18.79425,78.1895 Z" id="path78" fill="#FFFFFF"></path>
                <g id="g80" transform="translate(24.803450, 75.812338) rotate(-38.571252) translate(-24.803450, -75.812338) translate(18.469220, 73.642199)" stroke="#FFFFFF" stroke-width="0.625">
                    <path d="M0.165055001,0.302060444 C0.399808002,0.302060444 0.737068168,0.290181791 0.964220093,0.299090781 C1.90963074,0.334247025 2.6346102,0.541278244 3.50669408,0.66611832 C5.37099751,0.890739083 6.91788086,1.07976957 8.35480628,0.96347299 C9.07355886,0.85777582 9.35670968,0.441360496 9.68963251,0.0937042986 L12.4790985,4.30882153 L0.185560728,3.67493548 L0.16516236,0.302128975 L0.165055001,0.302060444 Z" id="path82"></path>
                </g>
                <path d="M22.12525,82.367375 C22.309125,82.22 22.58025,82.0195 22.751375,81.871 C23.468875,81.25375 23.90725,80.639625 24.511375,79.999 C25.829125,78.660375 26.920375,77.548875 28.11625,76.743875 C28.7445,76.37775 29.225375,76.527375 29.702625,76.5915 L29.25475,71.55675 L20.037875,79.71625 L22.12525,82.367375 L22.12525,82.367375 Z" id="path84" fill="#FFFFFF"></path>
                <g id="g86" transform="translate(25.800425, 77.062537) rotate(-38.571252) translate(-25.800425, -77.062537) translate(19.466195, 74.892399)" stroke="#FFFFFF" stroke-width="0.625">
                    <path d="M0.164496729,4.04639467 C0.400173025,4.04639467 0.737368775,4.05781645 0.963296799,4.04890746 C1.9095878,4.01361416 2.63484639,3.80660578 3.50656525,3.68240533 C5.37166314,3.4576475 6.91764467,3.26875407 8.35450568,3.38498212 C9.07362328,3.49079351 9.35681704,3.90741443 9.68993311,4.25468229 L12.4783041,0.0396335832 L0.185496312,0.672149021 L0.164453786,4.04637183 L0.164496729,4.04639467 Z" id="path88"></path>
                </g>
                <path d="M21.714625,41.23525 L20.958125,44.585125 L45.516375,50.414625 L46.693125,45.47025 L21.714625,41.23525 L21.714625,41.23525 Z" id="path90" fill="#FFFFFF"></path>
                <g id="g92" transform="translate(33.776556, 45.112831) rotate(-77.140885) translate(-33.776556, -45.112831) translate(31.092523, 32.320815)" stroke="#FFFFFF" stroke-width="0.625">
                    <path d="M3.78818066,0.131278062 L0.353927412,0.138587786 L0.135597379,25.3779888 L5.21780434,25.4252736 L3.78818066,0.131323748 L3.78818066,0.131278062 Z" id="path94"></path>
                </g>
                <path d="M20.430875,46.856 L21.20325,43.50975 L45.858,48.918875 L44.772375,53.883875 L20.430875,46.856 L20.430875,46.856 Z" id="path96" fill="#FFFFFF"></path>
                <g id="g98" transform="translate(32.988063, 48.566900) rotate(-77.140885) translate(-32.988063, -48.566900) translate(30.411390, 35.774884)" stroke="#FFFFFF" stroke-width="0.625">
                    <path d="M1.45854682,0.129724746 L4.89262829,0.1388619 L5.10535406,25.3784 L0.0234477179,25.4247711 L1.45854682,0.129656218 L1.45854682,0.129724746 Z" id="path100"></path>
                </g>
                <path d="M11.187125,44.5295 C12.7855,44.8955 14.34875,44.024625 14.67725,42.58525 C15.005375,41.147 13.975625,39.684375 12.376625,39.319375 C10.7785,38.953375 9.216,39.824625 8.88675,41.264 C8.558625,42.70225 9.588375,44.1645 11.187125,44.5295" id="path102" fill="#FFFFFF"></path>
                <g id="g104" transform="translate(11.796463, 41.813769) rotate(-77.134896) translate(-11.796463, -41.813769) translate(9.021054, 38.729904)" stroke="#FFFFFF" stroke-width="0.625">
                    <path d="M0.0109577244,3.10124852 C0.0109577244,4.741065 1.20707661,6.07089597 2.68373791,6.07050763 C4.15893955,6.07050763 5.35534626,4.74145334 5.35499676,3.10086018 C5.35705262,1.46138635 4.15912458,0.132309216 2.68262775,0.131486852 C1.20713829,0.131486852 0.0107726972,1.46138635 0.0109577244,3.10124852 L0.0109577244,3.10124852 Z" id="path106"></path>
                </g>
                <path d="M12.33825,39.31125 C12.5665,39.36375 12.898875,39.42875 13.1175,39.48625 C14.032,39.7315 14.69325,40.094625 15.514875,40.409625 C17.28375,41.04425 18.748875,41.572625 20.175375,41.7785 C20.9,41.836 21.2685,41.492875 21.671,41.227875 L23.45225,45.958125 L11.607375,42.605875 L12.33825,39.31125 L12.33825,39.31125 Z" id="path108" fill="#FFFFFF"></path>
                <g id="g110" transform="translate(17.834369, 42.449375) rotate(12.859115) translate(-17.834369, -42.449375) translate(11.607411, 40.279301)" stroke="#FFFFFF" stroke-width="0.625">
                    <path d="M0.134953211,0.327932463 C0.369473335,0.327932463 0.707103294,0.317424736 0.933528372,0.325191317 C1.87974685,0.361054647 2.60510158,0.567668545 3.47627448,0.691933842 C5.34159197,0.917073321 6.88753093,1.10607535 8.32439076,0.989279682 C9.04358294,0.883996823 9.32663039,0.467890822 9.65975118,0.120039363 L12.4488272,4.33498574 L0.155416284,3.70248908 L0.135017628,0.32790962 L0.134953211,0.327932463 Z" id="path112"></path>
                </g>
                <path d="M11.148875,44.520625 C11.378125,44.573125 11.70475,44.659125 11.926875,44.70175 C12.85775,44.87775 13.61075,44.83675 14.488,44.909625 C16.356375,45.106 17.9055,45.26575 19.280375,45.69875 C19.9585,45.96175 20.14175,46.431125 20.38875,46.844375 L24.046125,43.355625 L11.919875,41.236 L11.148875,44.520625 L11.148875,44.520625 Z" id="path114" fill="#FFFFFF"></path>
                <g id="g116" transform="translate(17.478506, 44.008275) rotate(12.859115) translate(-17.478506, -44.008275) translate(11.251548, 41.838201)" stroke="#FFFFFF" stroke-width="0.625">
                    <path d="M0.134545238,4.07226971 C0.369773946,4.07226971 0.707296544,4.0832343 0.933399538,4.07569614 C1.88004747,4.0401983 2.60497274,3.83260216 3.47651067,3.70847392 C5.34169933,3.4841111 6.88753093,3.29517759 8.32421898,3.41140219 C9.04394797,3.51714191 9.32699542,3.93375045 9.65968676,4.28153338 L12.4492351,0.0660159388 L0.15528745,0.698444064 L0.134459349,4.07224687 L0.134545238,4.07226971 Z" id="path118"></path>
                </g>
                <path d="M43.0035,18.524125 L39.912375,20.021125 L50.667,42.856375 L55.2665,40.69425 L43.0035,18.524125 L43.0035,18.524125 Z" id="path120" fill="#FFFFFF"></path>
                <g id="g122" transform="translate(47.504825, 30.395512) rotate(-25.713293) translate(-47.504825, -30.395512) translate(44.820758, 17.717428)" stroke="#FFFFFF" stroke-width="0.625">
                    <path d="M3.79782639,0.0410495821 L0.363100623,0.0490447706 L0.144875216,25.2886899 L5.22733915,25.3364097 L3.79782639,0.0410724255 L3.79782639,0.0410495821 Z" id="path124"></path>
                </g>
                <path d="M37.80825,21.025375 L40.906625,19.543125 L52.048875,42.190875 L47.49,44.43775 L37.80825,21.025375 L37.80825,21.025375 Z" id="path126" fill="#FFFFFF"></path>
                <g id="g128" transform="translate(44.312694, 31.932694) rotate(-25.713293) translate(-44.312694, -31.932694) translate(41.735989, 19.254609)" stroke="#FFFFFF" stroke-width="0.625">
                    <path d="M1.46749769,0.040524184 L4.90172958,0.0492046744 L5.11458685,25.2887355 L0.0323591153,25.3351533 L1.46749769,0.0404556538 L1.46749769,0.040524184 Z" id="path130"></path>
                </g>
                <path d="M33.8635,12.347375 C34.57575,13.825 36.230125,14.50425 37.56025,13.86425 C38.890125,13.223625 39.3915,11.506875 38.680375,10.029375 C37.969125,8.5515 36.31375,7.8725 34.98425,8.51325 C33.65375,9.15275 33.152375,10.869875 33.8635,12.347375" id="path132" fill="#FFFFFF"></path>
                <g id="g134" transform="translate(36.183081, 11.175275) rotate(-25.706582) translate(-36.183081, -11.175275) translate(33.407686, 8.091484)" stroke="#FFFFFF" stroke-width="0.625">
                    <path d="M0.156552829,3.12474817 C0.156552829,4.76498226 1.35336477,6.09453013 2.82973093,6.09503268 C4.30545978,6.09503268 5.50186055,4.76509647 5.5019839,3.12534208 C5.5019839,1.48524505 4.3053981,0.155697174 2.82938144,0.156085503 C1.3532003,0.156085503 0.15667618,1.48499378 0.156552829,3.12474817 L0.156552829,3.12474817 Z" id="path136"></path>
                </g>
                <path d="M38.6615,9.994625 C38.76325,10.206125 38.9205,10.504875 39.0105,10.712875 C39.389625,11.579875 39.51725,12.32325 39.783375,13.162 C40.39,14.940375 40.890625,16.4155 41.61875,17.659125 C42.02625,18.2615 42.5245,18.336625 42.98225,18.485875 L40.394625,22.8275 L35.63125,11.4765 L38.6615,9.994625 L38.6615,9.994625 Z" id="path138" fill="#FFFFFF"></path>
                <g id="g140" transform="translate(39.591056, 16.410894) rotate(64.286707) translate(-39.591056, -16.410894) translate(33.364020, 14.240771)" stroke="#FFFFFF" stroke-width="0.625">
                    <path d="M0.0451996932,0.21829149 C0.279894537,0.218405707 0.61709928,0.206641358 0.843698977,0.215321848 C1.78969313,0.250020966 2.51449866,0.457484686 3.3857469,0.582072566 C5.2513884,0.806828737 6.79717496,0.995857837 8.23394545,0.879562109 C8.95374788,0.773157572 9.23707802,0.357065119 9.56996678,0.0095942262 L12.3594428,4.22456623 L0.0658777477,3.59141583 L0.0452641108,0.218177273 L0.0451996932,0.21829149 Z" id="path142"></path>
                </g>
                <path d="M33.847625,12.312625 C33.94925,12.52425 34.08575,12.832875 34.191,13.033375 C34.6335,13.870625 35.134875,14.43375 35.624875,15.165375 C36.636875,16.74825 37.477375,18.05925 37.99675,19.403875 C38.213625,20.098 37.961,20.5335 37.791625,20.984875 L42.800125,21.668375 L36.8955,10.867 L33.847625,12.312625 L33.847625,12.312625 Z" id="path144" fill="#FFFFFF"></path>
                <g id="g146" transform="translate(38.253275, 17.055125) rotate(64.286707) translate(-38.253275, -17.055125) translate(32.026239, 14.770785)" stroke="#FFFFFF" stroke-width="0.625">
                    <path d="M0.0451352756,4.19071232 C0.27983012,4.19082654 0.617034862,4.20190558 0.843698977,4.19413883 C1.7899508,4.15813764 2.51456308,3.95103941 3.38643402,3.82697693 C5.25188226,3.6020837 6.79741116,3.41346578 8.23431048,3.52884777 C8.95381229,3.63465838 9.23654121,4.05123054 9.57009562,4.39977508 L12.3585409,0.183660902 L0.064975901,0.817199639 L0.0452211658,4.19064379 L0.0451352756,4.19071232 Z" id="path148"></path>
                </g>
                <path d="M74.01775,21.068875 L70.9205,19.586 L59.771875,42.232 L64.330625,44.479875 L74.01775,21.068875 L74.01775,21.068875 Z" id="path150" fill="#FFFFFF"></path>
                <g id="g152" transform="translate(67.492738, 32.034225) rotate(25.716298) translate(-67.492738, -32.034225) translate(64.915968, 19.241620)" stroke="#FFFFFF" stroke-width="0.625">
                    <path d="M3.70034863,0.12111856 L0.266266201,0.128657059 L0.048421797,25.3698837 L5.13088527,25.4171478 L3.70034863,0.121072872 L3.70034863,0.12111856 Z" id="path154"></path>
                </g>
                <path d="M68.823625,18.567 L71.914375,20.065125 L61.154125,42.8975 L56.55525,40.7335 L68.823625,18.567 L68.823625,18.567 Z" id="path156" fill="#FFFFFF"></path>
                <g id="g158" transform="translate(64.300606, 30.496838) rotate(25.716298) translate(-64.300606, -30.496838) translate(61.616471, 17.704232)" stroke="#FFFFFF" stroke-width="0.625">
                    <path d="M1.58537902,0.120798745 L5.02049216,0.129251002 L5.23279651,25.3701578 L0.150397457,25.4160513 L1.58537902,0.120821589 L1.58537902,0.120798745 Z" id="path160"></path>
                </g>
                <path d="M73.1485,10.07225 C72.436375,11.54975 72.938125,13.267625 74.2675,13.907125 C75.597,14.54775 77.252,13.869625 77.964625,12.392 C78.67575,10.9145 78.17475,9.19775 76.84525,8.55675 C75.515125,7.916125 73.86075,8.5955 73.1485,10.07225" id="path162" fill="#FFFFFF"></path>
                <g id="g164" transform="translate(75.464281, 11.240612) rotate(25.722160) translate(-75.464281, -11.240612) translate(72.688898, 8.156686)" stroke="#FFFFFF" stroke-width="0.625">
                    <path d="M0.156367171,3.05119078 C0.156531639,4.69161101 1.35374992,6.02158269 2.82918499,6.02108012 C4.30490788,6.02119434 5.50159164,4.69186229 5.50171499,3.05123646 C5.50171499,1.41141017 4.30531905,0.0819410581 2.82924666,0.0819410581 C1.35276311,0.0818039948 0.157189507,1.41179852 0.156367171,3.05119078 L0.156367171,3.05119078 Z" id="path166"></path>
                </g>
                <path d="M77.9795,12.3555 C77.87775,12.56775 77.742125,12.87675 77.636125,13.077375 C77.19325,13.91425 76.691875,14.47725 76.202125,15.209 C75.19025,16.792125 74.34975,18.102125 73.83025,19.447875 C73.613375,20.142 73.866125,20.5775 74.034375,21.02775 L69.027,21.712375 L74.931125,10.911 L77.9795,12.3555 L77.9795,12.3555 Z" id="path168" fill="#FFFFFF"></path>
                <g id="g170" transform="translate(73.579850, 17.128356) rotate(-64.283702) translate(-73.579850, -17.128356) translate(67.245291, 14.843962)" stroke="#FFFFFF" stroke-width="0.625">
                    <path d="M12.5104101,4.19825894 C12.274743,4.19825894 11.937766,4.21036623 11.7110961,4.20214241 C10.7648848,4.16625459 10.0396959,3.95899154 9.16799623,3.83531446 C7.30280149,3.61034735 5.75783481,3.42151936 4.31999732,3.5374295 C3.60084238,3.64310556 3.31793454,4.05934496 2.98520915,4.40721245 L0.195426508,0.192345959 L12.4895382,0.824803229 L12.5103671,4.19832748 L12.5104101,4.19825894 Z" id="path172"></path>
                </g>
                <path d="M73.166625,10.037125 C73.063875,10.24875 72.907625,10.548875 72.8165,10.755375 C72.438125,11.623875 72.309875,12.36725 72.044125,13.206 C71.437125,14.984375 70.9365,16.458375 70.20825,17.703125 C69.8005,18.3055 69.303,18.3795 68.84525,18.528375 L71.432875,22.870625 L76.1965,11.520375 L73.166625,10.037125 L73.166625,10.037125 Z" id="path174" fill="#FFFFFF"></path>
                <g id="g176" transform="translate(72.242069, 16.484044) rotate(-64.283702) translate(-72.242069, -16.484044) translate(65.907510, 14.313870)" stroke="#FFFFFF" stroke-width="0.625">
                    <path d="M12.5106678,0.226246363 C12.2752798,0.226246363 11.9374009,0.215281273 11.7117618,0.222819772 C10.7651425,0.258753287 10.0396959,0.465787898 9.16855453,0.589921857 C7.30305917,0.815071711 5.75779186,1.00357989 4.32031942,0.887646903 C3.60060617,0.781582498 3.31787012,0.365228882 2.98480117,0.0174299248 L0.195662711,4.23300457 L12.489302,3.60041024 L12.5107751,0.226314895 L12.5106678,0.226246363 Z" id="path178"></path>
                </g>
                <path d="M91.382,46.917625 L90.610375,43.571375 L65.953875,48.97425 L67.038875,53.940125 L91.382,46.917625 L91.382,46.917625 Z" id="path180" fill="#FFFFFF"></path>
                <g id="g182" transform="translate(78.757813, 48.627581) rotate(77.144137) translate(-78.757813, -48.627581) translate(76.073814, 35.835721)" stroke="#FFFFFF" stroke-width="0.625">
                    <path d="M3.78615616,0.100827268 L0.352484203,0.108799338 L0.133920808,25.348624 L5.21625518,25.3957026 L3.78615616,0.100827268 L3.78615616,0.100827268 Z" id="path184"></path>
                </g>
                <path d="M90.09975,41.296625 L90.8555,44.646375 L66.295375,50.469875 L65.119375,45.5255 L90.09975,41.296625 L90.09975,41.296625 Z" id="path186" fill="#FFFFFF"></path>
                <g id="g188" transform="translate(77.969525, 45.173513) rotate(77.144137) translate(-77.969525, -45.173513) translate(75.392886, 32.381652)" stroke="#FFFFFF" stroke-width="0.625">
                    <path d="M1.45704636,0.100507472 L4.89065391,0.108936394 L5.10361311,25.3480301 L0.0216652389,25.3944691 L1.45704636,0.100507472 L1.45704636,0.100507472 Z" id="path190"></path>
                </g>
                <path d="M99.437,39.38175 C97.838,39.74675 96.80825,41.208375 97.13675,42.647625 C97.46525,44.086875 99.0275,44.957875 100.6255,44.592875 C102.224625,44.229 103.255,42.766375 102.926875,41.327 C102.598375,39.88775 101.036125,39.017125 99.437,39.38175" id="path192" fill="#FFFFFF"></path>
                <g id="g194" transform="translate(100.093100, 41.902537) rotate(77.152653) translate(-100.093100, -41.902537) translate(97.317715, 38.818734)" stroke="#FFFFFF" stroke-width="0.625">
                    <path d="M0.140043892,3.16830013 C0.140043892,4.80844979 1.33631724,6.13736369 2.81261669,6.1371581 C4.28881336,6.13729516 5.48539508,4.80753607 5.48486056,3.16834582 C5.48486056,1.52833321 4.28881336,0.198185798 2.81245223,0.198779715 C1.33625556,0.198642657 0.139735516,1.52844743 0.140043892,3.16830013 L0.140043892,3.16830013 Z" id="path196"></path>
                </g>
                <path d="M100.664125,44.583375 C100.4355,44.634625 100.108875,44.7215 99.885625,44.763375 C98.955875,44.940125 98.202875,44.899 97.325625,44.972 C95.45725,45.167625 93.907375,45.3275 92.53225,45.760125 C91.855125,46.023375 91.671125,46.492875 91.423875,46.906 L87.7675,43.415875 L99.893125,41.29875 L100.664125,44.583375 L100.664125,44.583375 Z" id="path198" fill="#FFFFFF"></path>
                <g id="g200" transform="translate(94.300288, 44.176944) rotate(-12.855121) translate(-94.300288, -44.176944) translate(88.073057, 42.006780)" stroke="#FFFFFF" stroke-width="0.625">
                    <path d="M12.3454421,4.01955392 C12.1110835,4.01955392 11.7733314,4.0307474 11.5467031,4.02206674 C10.600572,3.98750403 9.875615,3.77989934 9.00403889,3.65588021 C7.1388759,3.43086853 5.59196736,3.24179018 4.15528079,3.35769975 C3.43652952,3.46369511 3.15282548,3.8805264 2.82011957,4.22836933 L0.0313938325,0.0123585098 L12.3244842,0.645726427 L12.3454421,4.01966814 L12.3454421,4.01955392 Z" id="path202"></path>
                </g>
                <path d="M99.475375,39.373625 C99.246125,39.426125 98.91475,39.489875 98.695375,39.548625 C97.781625,39.793125 97.120375,40.156375 96.29875,40.471375 C94.53025,41.106 93.065125,41.63425 91.63825,41.840125 C90.913625,41.897625 90.544375,41.5545 90.142625,41.289875 L88.36175,46.01975 L100.20525,42.6675 L99.475375,39.373625 L99.475375,39.373625 Z" id="path204" fill="#FFFFFF"></path>
                <g id="g206" transform="translate(93.944513, 42.617956) rotate(-12.855121) translate(-93.944513, -42.617956) translate(87.717282, 40.447793)" stroke="#FFFFFF" stroke-width="0.625">
                    <path d="M12.3454421,0.275245259 C12.1101816,0.275245259 11.7731381,0.263366469 11.5462307,0.272047123 C10.6008082,0.307477897 9.87578678,0.514168834 9.00421068,0.638370715 C7.13883296,0.863656527 5.59293365,1.05241506 4.15588204,0.93598008 C3.43665836,0.830761417 3.15263222,0.41413572 2.82011957,0.0667268155 L0.0310932075,4.28196095 L12.3243125,3.6487301 L12.3454421,0.275290946 L12.3454421,0.275245259 Z" id="path208"></path>
                </g>
                <path d="M82.053875,76.61625 L84.189125,73.926875 L64.592125,58.0185 L61.386875,61.961875 L82.053875,76.61625 L82.053875,76.61625 Z" id="path210" fill="#FFFFFF"></path>
                <g id="g212" transform="translate(72.769169, 67.904875) rotate(-51.426140) translate(-72.769169, -67.904875) translate(70.085076, 55.112590)" stroke="#FFFFFF" stroke-width="0.625">
                    <path d="M1.63641643,25.4921912 L5.07055256,25.4848814 L5.28809294,0.244424015 L0.207104627,0.197343838 L1.63641643,25.4922141 L1.63641643,25.4921912 Z" id="path214"></path>
                </g>
                <path d="M85.649625,72.109125 L83.501375,74.788625 L63.6365,59.217875 L66.7685,55.216125 L85.649625,72.109125 L85.649625,72.109125 Z" id="path216" fill="#FFFFFF"></path>
                <g id="g218" transform="translate(75.045256, 65.051000) rotate(-51.426140) translate(-75.045256, -65.051000) translate(72.361163, 52.258715)" stroke="#FFFFFF" stroke-width="0.625">
                    <path d="M3.7522119,25.4936075 L0.317152445,25.4844702 L0.10465816,0.245246376 L5.18618329,0.198554536 L3.7522119,25.4936761 L3.7522119,25.4936075 Z" id="path220"></path>
                </g>
                <path d="M92.96875,78.216125 C91.686375,77.193875 89.900625,77.29975 88.98075,78.4535 C88.06025,79.607125 88.353625,81.3725 89.634875,82.395 C90.917125,83.417625 92.702625,83.311375 93.6235,82.157625 C94.54375,81.003625 94.25075,79.239 92.96875,78.216125" id="path222" fill="#FFFFFF"></path>
                <g id="g224" transform="translate(91.218331, 80.330162) rotate(-51.417991) translate(-91.218331, -80.330162) translate(88.442876, 77.246230)" stroke="#FFFFFF" stroke-width="0.625">
                    <path d="M5.50860034,3.16023172 C5.50853866,1.52033325 4.31176233,0.190541368 2.8362275,0.190998246 C1.36030204,0.190861183 0.163279008,1.52110994 0.162929506,3.16043732 C0.162929506,4.80067845 1.35976751,6.13015051 2.8357752,6.13026473 C4.31176233,6.13026473 5.50888816,4.80092973 5.50860034,3.16023172 L5.50860034,3.16023172 Z" id="path226"></path>
                </g>
                <path d="M89.667125,82.418125 C89.48325,82.27175 89.212125,82.070125 89.040625,81.923125 C88.323125,81.3055 87.885125,80.69075 87.282125,80.05075 C85.962875,78.711375 84.872625,77.5995 83.67675,76.7945 C83.0485,76.428875 82.56775,76.578 82.090375,76.642125 L82.53825,71.60775 L91.754125,79.768 L89.667125,82.418125 L89.667125,82.418125 Z" id="path228" fill="#FFFFFF"></path>
                <g id="g230" transform="translate(86.031188, 77.101075) rotate(38.573860) translate(-86.031188, -77.101075) translate(79.804091, 74.816738)" stroke="#FFFFFF" stroke-width="0.625">
                    <path d="M12.3672705,4.18627523 C12.132509,4.18627523 11.7946353,4.19792535 11.5688709,4.18993017 C10.6230609,4.15477423 9.89689559,3.94664833 9.02630461,3.82283728 C7.16040895,3.59783013 5.61467192,3.40882412 4.17778024,3.5251197 C3.45867947,3.63040477 3.17577606,4.04688502 2.84234727,4.39481232 L0.053746281,0.179457483 L12.3465708,0.813200983 L12.3671846,4.18629808 L12.3672705,4.18627523 Z" id="path232"></path>
                </g>
                <path d="M92.998875,78.24125 C92.815,78.094875 92.558125,77.87525 92.376,77.7405 C91.614875,77.17825 90.91825,76.888375 90.159625,76.441625 C88.561625,75.454375 87.234625,74.638 86.18325,73.65125 C85.68725,73.120375 85.725875,72.617625 85.681875,72.138625 L80.87325,73.69475 L90.878875,80.865375 L92.998875,78.24125 L92.998875,78.24125 Z" id="path234" fill="#FFFFFF"></path>
                <g id="g236" transform="translate(86.957031, 75.940256) rotate(38.573860) translate(-86.957031, -75.940256) translate(80.729935, 73.770136)" stroke="#FFFFFF" stroke-width="0.625">
                    <path d="M12.3677644,0.213928122 C12.1330028,0.213996652 11.7954298,0.202734872 11.5688709,0.21073005 C10.622932,0.245908834 9.8975183,0.454148957 9.02587515,0.577297543 C7.16120344,0.80225901 5.61450014,0.991082273 4.17758698,0.874900914 C3.45857211,0.768976226 3.17541102,0.352541666 2.84234727,0.00541387772 L0.0530162077,4.22010626 L12.3462702,3.58766483 L12.3677644,0.213973808 L12.3677644,0.213928122 Z" id="path238"></path>
                </g>
            </g>
        </g>
    </g>
</svg>